<svg width="174" height="32" viewBox="0 0 174 32" fill="none" xmlns="http://www.w3.org/2000/svg">
<g style="mix-blend-mode:difference">
<path fill-rule="evenodd" clip-rule="evenodd" d="M56.0469 7.48374C57.6815 7.48374 59.0067 6.15276 59.0067 4.51093V3.64142C59.0067 1.99959 57.6815 0.66861 56.0469 0.66861C54.4122 0.66861 53.0871 1.99959 53.0871 3.64142V4.51093C53.0871 4.96599 53.1892 5.39647 53.371 5.78209C52.9563 5.55991 52.483 5.43386 51.981 5.43386H51.1153C50.6101 5.43386 50.1347 5.56098 49.7178 5.7853C49.9007 5.39861 50.0039 4.96706 50.0039 4.50987V3.64035C50.0039 1.99852 48.6788 0.667542 47.0441 0.667542C45.6817 0.667542 44.5352 1.59261 44.1907 2.85095C43.8461 1.59261 42.6996 0.667542 41.3372 0.667542C39.7026 0.667542 38.3774 1.99852 38.3774 3.64035V4.50987C38.3774 4.96492 38.4795 5.39541 38.6614 5.78103C38.2466 5.55884 37.7733 5.43279 37.2714 5.43279H36.4056C35.9005 5.43279 35.4251 5.55991 35.0082 5.78423C35.1911 5.39754 35.2942 4.96599 35.2942 4.5088V3.63928C35.2942 1.99745 33.9691 0.666473 32.3344 0.666473C30.9763 0.666473 29.832 1.5862 29.4842 2.83813C29.1364 1.58513 27.9921 0.666473 26.6339 0.666473C24.9993 0.666473 23.6741 1.99745 23.6741 3.63928V4.5088C23.6741 4.96385 23.7762 5.39434 23.9581 5.77996C23.5433 5.55777 23.0701 5.43172 22.5681 5.43172H21.7024C21.1972 5.43172 20.7218 5.55884 20.3049 5.78316C20.4878 5.39647 20.591 4.96492 20.591 4.50773V3.63821C20.591 1.99639 19.2658 0.665405 17.6312 0.665405C16.2922 0.665405 15.1627 1.55842 14.7969 2.78258C14.431 1.55735 13.3005 0.665405 11.9626 0.665405C10.3279 0.665405 9.00277 1.99639 9.00277 3.63821V4.50773C9.00277 4.96278 9.10487 5.39327 9.28673 5.77889C8.87195 5.5567 8.39868 5.43066 7.8967 5.43066H7.03099C6.52581 5.43066 6.05041 5.55777 5.63351 5.78209C5.81644 5.39541 5.9196 4.96385 5.9196 4.50666V3.63714C5.9196 1.99959 4.59444 0.66861 2.9598 0.66861C1.32516 0.66861 0 1.99959 0 3.64142V4.51093C0 6.15276 1.32516 7.48374 2.9598 7.48374C3.46498 7.48374 3.94037 7.35663 4.35728 7.1323C4.17435 7.51899 4.07119 7.95055 4.07119 8.40774C4.07119 8.87347 4.1786 9.31464 4.36897 9.70774C3.94994 9.47914 3.47029 9.34989 2.9598 9.34989C1.32516 9.34989 0 10.6809 0 12.3227V13.1922C0 14.4944 0.832743 15.5989 1.99305 16.0016C0.833806 16.4043 0 17.5099 0 18.811V19.6805C0 21.3223 1.32516 22.6533 2.9598 22.6533C3.46498 22.6533 3.94037 22.5262 4.35728 22.3018C4.17435 22.6885 4.07119 23.1201 4.07119 23.5773C4.07119 24.0345 4.1786 24.4842 4.36897 24.8773C3.94994 24.6487 3.47029 24.5194 2.9598 24.5194C1.32516 24.5194 0 25.8504 0 27.4922V28.3618C0 30.0036 1.32516 31.3346 2.9598 31.3346C4.59444 31.3346 5.9196 30.0036 5.9196 28.3618V27.4922C5.9196 27.0265 5.81218 26.5853 5.62181 26.1922C6.04084 26.4208 6.52049 26.5501 7.03099 26.5501H7.8967C8.404 26.5501 8.88152 26.4219 9.29843 26.1954C9.10912 26.5875 9.00277 27.0265 9.00277 27.4922V28.3618C9.00277 30.0036 10.3279 31.3346 11.9626 31.3346C13.3015 31.3346 14.431 30.4415 14.7969 29.2174C15.1627 30.4426 16.2933 31.3346 17.6312 31.3346C19.2658 31.3346 20.591 30.0036 20.591 28.3618V27.4922C20.591 27.0265 20.4836 26.5853 20.2932 26.1922C20.7122 26.4208 21.1919 26.5501 21.7024 26.5501H22.5681C23.0754 26.5501 23.5529 26.4219 23.9698 26.1954C23.7805 26.5875 23.6741 27.0265 23.6741 27.4922V28.3618C23.6741 30.0036 24.9993 31.3346 26.6339 31.3346C27.9921 31.3346 29.1364 30.4148 29.4842 29.1629C29.832 30.4159 30.9763 31.3346 32.3344 31.3346C33.9691 31.3346 35.2942 30.0036 35.2942 28.3618V27.4922C35.2942 27.0265 35.1868 26.5853 34.9965 26.1922C35.4155 26.4208 35.8951 26.5501 36.4056 26.5501H37.2714C37.7787 26.5501 38.2562 26.4219 38.6731 26.1954C38.4838 26.5875 38.3774 27.0265 38.3774 27.4922V28.3618C38.3774 30.0036 39.7026 31.3346 41.3372 31.3346C42.6996 31.3346 43.8461 30.4095 44.1907 29.1512C44.5352 30.4095 45.6817 31.3346 47.0441 31.3346C48.6788 31.3346 50.0039 30.0036 50.0039 28.3618V27.4922C50.0039 27.0265 49.8965 26.5853 49.7061 26.1922C50.1252 26.4208 50.6048 26.5501 51.1153 26.5501H51.981C52.4883 26.5501 52.9658 26.4219 53.3827 26.1954C53.1934 26.5875 53.0871 27.0265 53.0871 27.4922V28.3618C53.0871 30.0036 54.4122 31.3346 56.0469 31.3346C57.6815 31.3346 59.0067 30.0036 59.0067 28.3618V27.4922C59.0067 25.8504 57.6815 24.5194 56.0469 24.5194C55.5396 24.5194 55.062 24.6476 54.6451 24.8741C54.8345 24.482 54.9408 24.0419 54.9408 23.5773C54.9408 23.1126 54.8387 22.6917 54.6568 22.3061C55.0716 22.5283 55.5449 22.6544 56.0469 22.6544C57.6815 22.6544 59.0067 21.3234 59.0067 19.6815V18.812C59.0067 17.5099 58.1739 16.4054 57.0136 16.0027C58.1729 15.5999 59.0067 14.4944 59.0067 13.1933V12.3238C59.0067 10.6819 57.6815 9.35096 56.0469 9.35096C55.5396 9.35096 55.062 9.47914 54.6451 9.7056C54.8345 9.31357 54.9408 8.87347 54.9408 8.4088C54.9408 7.95375 54.8387 7.52326 54.6568 7.13764C55.0716 7.35983 55.5449 7.48588 56.0469 7.48588V7.48374ZM4.36153 4.5088C4.36153 5.28645 3.73405 5.91669 2.9598 5.91669C2.18555 5.91669 1.55807 5.28645 1.55807 4.5088V3.64249C1.55807 2.86483 2.18555 2.23459 2.9598 2.23459C3.73405 2.23459 4.36153 2.86483 4.36153 3.64249V4.5088ZM4.36153 28.3596C4.36153 29.1373 3.73405 29.7675 2.9598 29.7675C2.18555 29.7675 1.55807 29.1373 1.55807 28.3596V27.4933C1.55807 26.7157 2.18555 26.0854 2.9598 26.0854C3.73405 26.0854 4.36153 26.7157 4.36153 27.4933V28.3596ZM51.1174 6.99878H51.9799C52.7542 6.99878 53.3817 7.62902 53.3817 8.40667C53.3817 9.18432 52.7542 9.81456 51.9799 9.81456H51.1174C50.3432 9.81456 49.7157 9.18432 49.7157 8.40667C49.7157 7.62902 50.3432 6.99878 51.1174 6.99878ZM45.6424 3.64355C45.6424 2.8659 46.2699 2.23566 47.0441 2.23566C47.8184 2.23566 48.4458 2.8659 48.4458 3.64355V4.50987C48.4458 5.28752 47.8184 5.91776 47.0441 5.91776C46.2699 5.91776 45.6424 5.28752 45.6424 4.50987V3.64355ZM44.1907 5.30034C44.5352 6.55868 45.6817 7.48374 47.0441 7.48374C47.5493 7.48374 48.0247 7.35663 48.4416 7.1323C48.2587 7.51899 48.1555 7.95055 48.1555 8.40774C48.1555 8.87347 48.2629 9.31464 48.4533 9.70774C48.0343 9.47914 47.5546 9.34989 47.0441 9.34989C45.6817 9.34989 44.5352 10.275 44.1907 11.5333C43.8461 10.275 42.6996 9.34989 41.3372 9.34989C40.8299 9.34989 40.3524 9.47808 39.9355 9.70453C40.1248 9.3125 40.2311 8.8724 40.2311 8.40774C40.2311 7.95268 40.129 7.5222 39.9472 7.13658C40.362 7.35876 40.8352 7.48481 41.3372 7.48481C42.6996 7.48481 43.8461 6.55975 44.1907 5.3014V5.30034ZM44.1907 18.0216C43.9322 17.0762 43.2197 16.3199 42.304 16.0016C43.2197 15.6833 43.9312 14.927 44.1907 13.9816C44.4491 14.927 45.1617 15.6833 46.0774 16.0016C45.1617 16.3199 44.4502 17.0762 44.1907 18.0216ZM42.74 18.812V19.6783C42.74 20.456 42.1125 21.0862 41.3383 21.0862C40.564 21.0862 39.9366 20.456 39.9366 19.6783V18.812C39.9366 18.0344 40.564 17.4041 41.3383 17.4041C42.1125 17.4041 42.74 18.0344 42.74 18.812ZM45.6424 18.812C45.6424 18.0344 46.2699 17.4041 47.0441 17.4041C47.8184 17.4041 48.4458 18.0344 48.4458 18.812V19.6783C48.4458 20.456 47.8184 21.0862 47.0441 21.0862C46.2699 21.0862 45.6424 20.456 45.6424 19.6783V18.812ZM47.0441 14.598C46.2699 14.598 45.6424 13.9677 45.6424 13.1901V12.3238C45.6424 11.5461 46.2699 10.9159 47.0441 10.9159C47.8184 10.9159 48.4458 11.5461 48.4458 12.3238V13.1901C48.4458 13.9677 47.8184 14.598 47.0441 14.598ZM39.9355 3.64355C39.9355 2.8659 40.563 2.23566 41.3372 2.23566C42.1115 2.23566 42.7389 2.8659 42.7389 3.64355V4.50987C42.7389 5.28752 42.1115 5.91776 41.3372 5.91776C40.563 5.91776 39.9355 5.28752 39.9355 4.50987V3.64355ZM39.9355 12.3238C39.9355 11.5461 40.563 10.9159 41.3372 10.9159C42.1115 10.9159 42.7389 11.5461 42.7389 12.3238V13.1901C42.7389 13.9677 42.1115 14.598 41.3372 14.598C40.563 14.598 39.9355 13.9677 39.9355 13.1901V12.3238ZM36.4078 6.99878H37.2703C38.0445 6.99878 38.672 7.62902 38.672 8.40667C38.672 9.18432 38.0445 9.81456 37.2703 9.81456H36.4078C35.6335 9.81456 35.006 9.18432 35.006 8.40667C35.006 7.62902 35.6335 6.99878 36.4078 6.99878ZM30.9327 3.64355C30.9327 2.8659 31.5602 2.23566 32.3344 2.23566C33.1087 2.23566 33.7362 2.8659 33.7362 3.64355V4.50987C33.7362 5.28752 33.1087 5.91776 32.3344 5.91776C31.5602 5.91776 30.9327 5.28752 30.9327 4.50987V3.64355ZM29.4853 5.31209C29.833 6.56509 30.9774 7.48374 32.3355 7.48374C32.8407 7.48374 33.3161 7.35663 33.733 7.1323C33.5501 7.51899 33.4469 7.95055 33.4469 8.40774C33.4469 8.87347 33.5543 9.31464 33.7447 9.70774C33.3257 9.47914 32.846 9.34989 32.3355 9.34989C30.9774 9.34989 29.833 10.2696 29.4853 11.5215C29.1375 10.2685 27.9931 9.34989 26.635 9.34989C26.1277 9.34989 25.6502 9.47808 25.2333 9.70453C25.4226 9.3125 25.5289 8.8724 25.5289 8.40774C25.5289 7.95268 25.4268 7.5222 25.245 7.13658C25.6597 7.35876 26.133 7.48481 26.635 7.48481C27.9931 7.48481 29.1375 6.56509 29.4853 5.31315V5.31209ZM29.4853 18.0098C29.2236 17.0698 28.5143 16.3178 27.6017 16.0005C28.5143 15.6843 29.2236 14.9323 29.4853 13.9912C29.7469 14.9312 30.4563 15.6833 31.3688 16.0005C30.4563 16.3167 29.7469 17.0687 29.4853 18.0098ZM28.0367 18.812V19.6783C28.0367 20.456 27.4093 21.0862 26.635 21.0862C25.8608 21.0862 25.2333 20.456 25.2333 19.6783V18.812C25.2333 18.0344 25.8608 17.4041 26.635 17.4041C27.4093 17.4041 28.0367 18.0344 28.0367 18.812ZM30.9327 18.812C30.9327 18.0344 31.5602 17.4041 32.3344 17.4041C33.1087 17.4041 33.7362 18.0344 33.7362 18.812V19.6783C33.7362 20.456 33.1087 21.0862 32.3344 21.0862C31.5602 21.0862 30.9327 20.456 30.9327 19.6783V18.812ZM32.3355 14.598C31.5613 14.598 30.9338 13.9677 30.9338 13.1901V12.3238C30.9338 11.5461 31.5613 10.9159 32.3355 10.9159C33.1098 10.9159 33.7372 11.5461 33.7372 12.3238V13.1901C33.7372 13.9677 33.1098 14.598 32.3355 14.598ZM25.2322 3.64355C25.2322 2.8659 25.8597 2.23566 26.6339 2.23566C27.4082 2.23566 28.0357 2.8659 28.0357 3.64355V4.50987C28.0357 5.28752 27.4082 5.91776 26.6339 5.91776C25.8597 5.91776 25.2322 5.28752 25.2322 4.50987V3.64355ZM25.2322 12.3238C25.2322 11.5461 25.8597 10.9159 26.6339 10.9159C27.4082 10.9159 28.0357 11.5461 28.0357 12.3238V13.1901C28.0357 13.9677 27.4082 14.598 26.6339 14.598C25.8597 14.598 25.2322 13.9677 25.2322 13.1901V12.3238ZM21.7045 6.99878H22.567C23.3413 6.99878 23.9687 7.62902 23.9687 8.40667C23.9687 9.18432 23.3413 9.81456 22.567 9.81456H21.7045C20.9302 9.81456 20.3028 9.18432 20.3028 8.40667C20.3028 7.62902 20.9302 6.99878 21.7045 6.99878ZM16.2294 3.64355C16.2294 2.8659 16.8569 2.23566 17.6312 2.23566C18.4054 2.23566 19.0329 2.8659 19.0329 3.64355V4.50987C19.0329 5.28752 18.4054 5.91776 17.6312 5.91776C16.8569 5.91776 16.2294 5.28752 16.2294 4.50987V3.64355ZM14.7969 5.36656C15.1627 6.59179 16.2933 7.48374 17.6312 7.48374C18.1363 7.48374 18.6117 7.35663 19.0286 7.1323C18.8457 7.51899 18.7426 7.95055 18.7426 8.40774C18.7426 8.87347 18.85 9.31464 19.0403 9.70774C18.6213 9.47914 18.1417 9.34989 17.6312 9.34989C16.2922 9.34989 15.1627 10.2429 14.7969 11.4671C14.431 10.2418 13.3005 9.34989 11.9626 9.34989C11.4553 9.34989 10.9777 9.47808 10.5608 9.70453C10.7501 9.3125 10.8565 8.8724 10.8565 8.40774C10.8565 7.95268 10.7544 7.5222 10.5725 7.13658C10.9873 7.35876 11.4606 7.48481 11.9626 7.48481C13.3015 7.48481 14.431 6.59179 14.7969 5.36763V5.36656ZM14.7969 17.9553C14.5235 17.0409 13.8237 16.3114 12.9293 16.0005C13.8237 15.6897 14.5235 14.9612 14.7969 14.0457C15.0702 14.9601 15.77 15.6897 16.6644 16.0005C15.77 16.3114 15.0702 17.0399 14.7969 17.9553ZM13.3643 18.812V19.6783C13.3643 20.456 12.7368 21.0862 11.9626 21.0862C11.1883 21.0862 10.5608 20.456 10.5608 19.6783V18.812C10.5608 18.0344 11.1883 17.4041 11.9626 17.4041C12.7368 17.4041 13.3643 18.0344 13.3643 18.812ZM16.2294 18.812C16.2294 18.0344 16.8569 17.4041 17.6312 17.4041C18.4054 17.4041 19.0329 18.0344 19.0329 18.812V19.6783C19.0329 20.456 18.4054 21.0862 17.6312 21.0862C16.8569 21.0862 16.2294 20.456 16.2294 19.6783V18.812ZM17.6322 14.598C16.858 14.598 16.2305 13.9677 16.2305 13.1901V12.3238C16.2305 11.5461 16.858 10.9159 17.6322 10.9159C18.4065 10.9159 19.034 11.5461 19.034 12.3238V13.1901C19.034 13.9677 18.4065 14.598 17.6322 14.598ZM10.5608 3.64355C10.5608 2.8659 11.1883 2.23566 11.9626 2.23566C12.7368 2.23566 13.3643 2.8659 13.3643 3.64355V4.50987C13.3643 5.28752 12.7368 5.91776 11.9626 5.91776C11.1883 5.91776 10.5608 5.28752 10.5608 4.50987V3.64355ZM10.5608 12.3238C10.5608 11.5461 11.1883 10.9159 11.9626 10.9159C12.7368 10.9159 13.3643 11.5461 13.3643 12.3238V13.1901C13.3643 13.9677 12.7368 14.598 11.9626 14.598C11.1883 14.598 10.5608 13.9677 10.5608 13.1901V12.3238ZM7.03205 6.99878H7.89457C8.66882 6.99878 9.2963 7.62902 9.2963 8.40667C9.2963 9.18432 8.66882 9.81456 7.89457 9.81456H7.03205C6.2578 9.81456 5.63032 9.18432 5.63032 8.40667C5.63032 7.62902 6.2578 6.99878 7.03205 6.99878ZM1.55807 13.1901V12.3238C1.55807 11.5461 2.18555 10.9159 2.9598 10.9159C3.73405 10.9159 4.36153 11.5461 4.36153 12.3238V13.1901C4.36153 13.9677 3.73405 14.598 2.9598 14.598C2.18555 14.598 1.55807 13.9677 1.55807 13.1901ZM4.36153 19.6783C4.36153 20.456 3.73405 21.0862 2.9598 21.0862C2.18555 21.0862 1.55807 20.456 1.55807 19.6783V18.812C1.55807 18.0344 2.18555 17.4041 2.9598 17.4041C3.73405 17.4041 4.36153 18.0344 4.36153 18.812V19.6783ZM7.89457 24.9841H7.03205C6.2578 24.9841 5.63032 24.3539 5.63032 23.5762C5.63032 22.7986 6.2578 22.1683 7.03205 22.1683H7.89457C8.66882 22.1683 9.2963 22.7986 9.2963 23.5762C9.2963 24.3539 8.66882 24.9841 7.89457 24.9841ZM9.00277 18.811V19.6805C9.00277 20.1355 9.10487 20.566 9.28673 20.9516C8.87195 20.7295 8.39868 20.6034 7.8967 20.6034H7.03099C6.52581 20.6034 6.05041 20.7305 5.63351 20.9548C5.81644 20.5682 5.9196 20.1366 5.9196 19.6794V18.8099C5.9196 17.5078 5.08686 16.4032 3.92655 16.0005C5.08579 15.5978 5.9196 14.4922 5.9196 13.1911V12.3216C5.9196 11.8559 5.81218 11.4147 5.62181 11.0216C6.04084 11.2502 6.52049 11.3795 7.03099 11.3795H7.8967C8.404 11.3795 8.88152 11.2513 9.29843 11.0248C9.10912 11.4169 9.00277 11.857 9.00277 12.3216V13.1911C9.00277 14.4933 9.83551 15.5978 10.9958 16.0005C9.83657 16.4032 9.00277 17.5088 9.00277 18.8099V18.811ZM13.3643 28.3596C13.3643 29.1373 12.7368 29.7675 11.9626 29.7675C11.1883 29.7675 10.5608 29.1373 10.5608 28.3596V27.4933C10.5608 26.7157 11.1883 26.0854 11.9626 26.0854C12.7368 26.0854 13.3643 26.7157 13.3643 27.4933V28.3596ZM19.034 28.3596C19.034 29.1373 18.4065 29.7675 17.6322 29.7675C16.858 29.7675 16.2305 29.1373 16.2305 28.3596V27.4933C16.2305 26.7157 16.858 26.0854 17.6322 26.0854C18.4065 26.0854 19.034 26.7157 19.034 27.4933V28.3596ZM17.6322 24.5184C16.2933 24.5184 15.1638 25.4114 14.7979 26.6355C14.4321 25.4103 13.3015 24.5184 11.9636 24.5184C11.4563 24.5184 10.9788 24.6465 10.5619 24.873C10.7512 24.481 10.8576 24.0409 10.8576 23.5762C10.8576 23.1115 10.7555 22.6907 10.5736 22.305C10.9884 22.5272 11.4616 22.6533 11.9636 22.6533C13.3026 22.6533 14.4321 21.7603 14.7979 20.5361C15.1638 21.7613 16.2943 22.6533 17.6322 22.6533C18.1374 22.6533 18.6128 22.5262 19.0297 22.3018C18.8468 22.6885 18.7436 23.1201 18.7436 23.5773C18.7436 24.0345 18.851 24.4842 19.0414 24.8773C18.6224 24.6487 18.1427 24.5194 17.6322 24.5194V24.5184ZM22.567 24.9841H21.7045C20.9302 24.9841 20.3028 24.3539 20.3028 23.5762C20.3028 22.7986 20.9302 22.1683 21.7045 22.1683H22.567C23.3413 22.1683 23.9687 22.7986 23.9687 23.5762C23.9687 24.3539 23.3413 24.9841 22.567 24.9841ZM23.6752 18.811V19.6805C23.6752 20.1355 23.7773 20.566 23.9592 20.9516C23.5444 20.7295 23.0711 20.6034 22.5691 20.6034H21.7034C21.1982 20.6034 20.7228 20.7305 20.3059 20.9548C20.4889 20.5682 20.592 20.1366 20.592 19.6794V18.8099C20.592 17.5078 19.7593 16.4032 18.599 16.0005C19.7582 15.5978 20.592 14.4922 20.592 13.1911V12.3216C20.592 11.8559 20.4846 11.4147 20.2942 11.0216C20.7133 11.2502 21.1929 11.3795 21.7034 11.3795H22.5691C23.0764 11.3795 23.554 11.2513 23.9709 11.0248C23.7816 11.4169 23.6752 11.857 23.6752 12.3216V13.1911C23.6752 14.4933 24.5079 15.5978 25.6683 16.0005C24.509 16.4032 23.6752 17.5088 23.6752 18.8099V18.811ZM28.0367 28.3596C28.0367 29.1373 27.4093 29.7675 26.635 29.7675C25.8608 29.7675 25.2333 29.1373 25.2333 28.3596V27.4933C25.2333 26.7157 25.8608 26.0854 26.635 26.0854C27.4093 26.0854 28.0367 26.7157 28.0367 27.4933V28.3596ZM33.7372 28.3596C33.7372 29.1373 33.1098 29.7675 32.3355 29.7675C31.5613 29.7675 30.9338 29.1373 30.9338 28.3596V27.4933C30.9338 26.7157 31.5613 26.0854 32.3355 26.0854C33.1098 26.0854 33.7372 26.7157 33.7372 27.4933V28.3596ZM32.3355 24.5184C30.9774 24.5184 29.833 25.4381 29.4853 26.69C29.1375 25.437 27.9931 24.5184 26.635 24.5184C26.1277 24.5184 25.6502 24.6465 25.2333 24.873C25.4226 24.481 25.5289 24.0409 25.5289 23.5762C25.5289 23.1115 25.4268 22.6907 25.245 22.305C25.6597 22.5272 26.133 22.6533 26.635 22.6533C27.9931 22.6533 29.1375 21.7336 29.4853 20.4816C29.833 21.7346 30.9774 22.6533 32.3355 22.6533C32.8407 22.6533 33.3161 22.5262 33.733 22.3018C33.5501 22.6885 33.4469 23.1201 33.4469 23.5773C33.4469 24.0345 33.5543 24.4842 33.7447 24.8773C33.3257 24.6487 32.846 24.5194 32.3355 24.5194V24.5184ZM37.2703 24.9841H36.4078C35.6335 24.9841 35.006 24.3539 35.006 23.5762C35.006 22.7986 35.6335 22.1683 36.4078 22.1683H37.2703C38.0445 22.1683 38.672 22.7986 38.672 23.5762C38.672 24.3539 38.0445 24.9841 37.2703 24.9841ZM38.3785 18.811V19.6805C38.3785 20.1355 38.4806 20.566 38.6624 20.9516C38.2477 20.7295 37.7744 20.6034 37.2724 20.6034H36.4067C35.9015 20.6034 35.4261 20.7305 35.0092 20.9548C35.1922 20.5682 35.2953 20.1366 35.2953 19.6794V18.8099C35.2953 17.5078 34.4626 16.4032 33.3023 16.0005C34.4615 15.5978 35.2953 14.4922 35.2953 13.1911V12.3216C35.2953 11.8559 35.1879 11.4147 34.9975 11.0216C35.4166 11.2502 35.8962 11.3795 36.4067 11.3795H37.2724C37.7797 11.3795 38.2572 11.2513 38.6741 11.0248C38.4848 11.4169 38.3785 11.857 38.3785 12.3216V13.1911C38.3785 14.4933 39.2112 15.5978 40.3715 16.0005C39.2123 16.4032 38.3785 17.5088 38.3785 18.8099V18.811ZM42.74 28.3596C42.74 29.1373 42.1125 29.7675 41.3383 29.7675C40.564 29.7675 39.9366 29.1373 39.9366 28.3596V27.4933C39.9366 26.7157 40.564 26.0854 41.3383 26.0854C42.1125 26.0854 42.74 26.7157 42.74 27.4933V28.3596ZM48.4469 28.3596C48.4469 29.1373 47.8194 29.7675 47.0452 29.7675C46.2709 29.7675 45.6434 29.1373 45.6434 28.3596V27.4933C45.6434 26.7157 46.2709 26.0854 47.0452 26.0854C47.8194 26.0854 48.4469 26.7157 48.4469 27.4933V28.3596ZM47.0441 24.5184C45.6817 24.5184 44.5352 25.4434 44.1907 26.7018C43.8461 25.4434 42.6996 24.5184 41.3372 24.5184C40.8299 24.5184 40.3524 24.6465 39.9355 24.873C40.1248 24.481 40.2311 24.0409 40.2311 23.5762C40.2311 23.1115 40.129 22.6907 39.9472 22.305C40.362 22.5272 40.8352 22.6533 41.3372 22.6533C42.6996 22.6533 43.8461 21.7282 44.1907 20.4699C44.5352 21.7282 45.6817 22.6533 47.0441 22.6533C47.5493 22.6533 48.0247 22.5262 48.4416 22.3018C48.2587 22.6885 48.1555 23.1201 48.1555 23.5773C48.1555 24.0345 48.2629 24.4842 48.4533 24.8773C48.0343 24.6487 47.5546 24.5194 47.0441 24.5194V24.5184ZM51.9799 24.9841H51.1174C50.3432 24.9841 49.7157 24.3539 49.7157 23.5762C49.7157 22.7986 50.3432 22.1683 51.1174 22.1683H51.9799C52.7542 22.1683 53.3817 22.7986 53.3817 23.5762C53.3817 24.3539 52.7542 24.9841 51.9799 24.9841ZM53.0871 18.811V19.6805C53.0871 20.1355 53.1892 20.566 53.371 20.9516C52.9563 20.7295 52.483 20.6034 51.981 20.6034H51.1153C50.6101 20.6034 50.1347 20.7305 49.7178 20.9548C49.9007 20.5682 50.0039 20.1366 50.0039 19.6794V18.8099C50.0039 17.5078 49.1712 16.4032 48.0109 16.0005C49.1701 15.5978 50.0039 14.4922 50.0039 13.1911V12.3216C50.0039 11.8559 49.8965 11.4147 49.7061 11.0216C50.1252 11.2502 50.6048 11.3795 51.1153 11.3795H51.981C52.4883 11.3795 52.9658 11.2513 53.3827 11.0248C53.1934 11.4169 53.0871 11.857 53.0871 12.3216V13.1911C53.0871 14.4933 53.9198 15.5978 55.0801 16.0005C53.9209 16.4032 53.0871 17.5088 53.0871 18.8099V18.811ZM56.0469 26.0844C56.8211 26.0844 57.4486 26.7146 57.4486 27.4922V28.3586C57.4486 29.1362 56.8211 29.7664 56.0469 29.7664C55.2726 29.7664 54.6451 29.1362 54.6451 28.3586V27.4922C54.6451 26.7146 55.2726 26.0844 56.0469 26.0844ZM57.4497 18.812V19.6783C57.4497 20.456 56.8222 21.0862 56.0479 21.0862C55.2737 21.0862 54.6462 20.456 54.6462 19.6783V18.812C54.6462 18.0344 55.2737 17.4041 56.0479 17.4041C56.8222 17.4041 57.4497 18.0344 57.4497 18.812ZM56.0469 10.9159C56.8211 10.9159 57.4486 11.5461 57.4486 12.3238V13.1901C57.4486 13.9677 56.8211 14.598 56.0469 14.598C55.2726 14.598 54.6451 13.9677 54.6451 13.1901V12.3238C54.6451 11.5461 55.2726 10.9159 56.0469 10.9159ZM54.6451 4.5088V3.64249C54.6451 2.86483 55.2726 2.23459 56.0469 2.23459C56.8211 2.23459 57.4486 2.86483 57.4486 3.64249V4.5088C57.4486 5.28645 56.8211 5.91669 56.0469 5.91669C55.2726 5.91669 54.6451 5.28645 54.6451 4.5088Z" fill="white"/>
<path d="M164.133 24.5086V6.94098H173.921V9.47217H167.476V14.1982H173.004V16.676H167.476V21.9774H174V24.5086H164.133Z" fill="white"/>
<path d="M150.25 24.5086V22.63L157.548 9.47217H150.434V6.94098H161.688V8.84719L154.363 21.9774H161.713V24.5086H150.25Z" fill="white"/>
<path d="M141.697 24.8229C137.723 24.8229 135.35 22.2347 135.35 17.8984V6.94098H138.72V17.9518C138.72 20.7109 139.806 22.2917 141.697 22.2917C142.6 22.2917 144.703 21.8689 144.703 17.9518V6.94098H148.046V17.8984C148.046 22.2347 145.673 24.8229 141.699 24.8229H141.697Z" fill="white"/>
<path d="M129.824 24.5086L126.657 16.4702L124.218 19.9076V24.5086H120.874V6.94098H124.218V15.2037L129.462 6.94098H133.394L128.723 13.564L133.661 24.5086H129.824Z" fill="white"/>
<path d="M117.746 6.94098H114.402V24.5086H117.746V6.94098Z" fill="white"/>
<path d="M106.099 24.8229C104.472 24.8229 103.102 24.2954 102.141 23.2991C101.069 22.1906 100.516 20.5215 100.531 18.4591L103.838 18.1154C103.799 19.7899 104.117 21.0307 104.766 21.7164C105.123 22.0932 105.573 22.2917 106.073 22.2917C107.02 22.2917 108.029 21.4406 108.029 19.051V6.94098H111.372V19.13C111.372 22.4811 109.203 24.8229 106.099 24.8229Z" fill="white"/>
<path d="M92.274 24.8229C88.2999 24.8229 85.9268 22.2347 85.9268 17.8984V6.94098H89.2962V17.9518C89.2962 20.7109 90.3825 22.2917 92.274 22.2917C93.1766 22.2917 95.2776 21.8689 95.2776 17.9518V6.94098H98.6213V17.8984C98.6213 22.2347 96.2482 24.8229 92.274 24.8229Z" fill="white"/>
<path d="M76.1841 24.5086V9.47223H71.7834V6.94104H83.9817V9.47223H79.5535V24.5086H76.1841Z" fill="white"/>
</g>
</svg>
